<svg width="25" height="26" viewBox="0 0 25 26" fill="none" xmlns="http://www.w3.org/2000/svg">
<path d="M17.8138 6.248C17.8138 3.26541 15.396 0.84749 12.4134 0.84749C10.9771 0.841453 9.59761 1.40774 8.57987 2.42118C7.56214 3.43463 6.99003 4.81173 6.99003 6.248M17.6422 24.875H7.20743C3.37447 24.875 0.43397 23.4906 1.26921 17.9185L2.24175 10.367C2.75662 7.58667 4.53008 6.5226 6.08614 6.5226H18.8093C20.3882 6.5226 22.0587 7.66676 22.6536 10.367L23.6262 17.9185C24.3356 22.8613 21.4752 24.875 17.6422 24.875Z" stroke="#26322D" stroke-width="1.5" stroke-linecap="round" stroke-linejoin="round"/>
<path d="M16.12 11.8775H16.0637" stroke="#26322D" stroke-width="1.5" stroke-linecap="round" stroke-linejoin="round"/>
<path d="M8.83265 11.8775H8.77515" stroke="#26322D" stroke-width="1.5" stroke-linecap="round" stroke-linejoin="round"/>
</svg>
